<?xml version="1.0" encoding="UTF-8"?>
<svg width="128pt" height="128pt" version="1.1" viewBox="0 0 128 128" xmlns="http://www.w3.org/2000/svg">
 <path d="m84.082 74.559c-1.7539-1.7539-4.2383-2.3164-6.4766-1.7148l-5.0547-5.0547c4.9297-6.0039 7.6016-13.453 7.6016-21.312 0-9-3.5078-17.461-9.8672-23.82-13.133-13.133-34.496-13.133-47.629 0-6.3477 6.3633-9.8555 14.82-9.8555 23.82s3.5078 17.445 9.8672 23.809c6.3633 6.3633 14.824 9.8672 23.809 9.8672 7.8711 0 15.32-2.6758 21.324-7.6016l5.0547 5.0547c-0.58984 2.2383-0.039063 4.7227 1.7148 6.4766l29.145 29.145c1.3203 1.3203 3.0352 1.9727 4.7617 1.9727 1.7266 0 3.4414-0.65234 4.7617-1.9727 2.625-2.625 2.625-6.8867 0-9.5117zm-16.957-7.4492c-5.5156 5.5156-12.852 8.5508-20.645 8.5508-7.7969 0-15.129-3.0352-20.645-8.5508-5.5156-5.5156-8.5508-12.84-8.5508-20.645 0-7.7969 3.0352-15.129 8.5508-20.645 5.6953-5.6953 13.172-8.5391 20.645-8.5391 7.4766 0 14.949 2.8398 20.645 8.5391 5.5156 5.5156 8.5508 12.852 8.5508 20.645-0.003906 7.8086-3.0352 15.141-8.5508 20.645z" fill="#333"/>
</svg>
