<svg width="315" height="17" viewBox="0 0 315 17" fill="none" xmlns="http://www.w3.org/2000/svg">
<path d="M312.095 1.22805C311.035 1.09344 306.975 1.00207 298.461 0.944346C289.948 0.886622 276.98 0.862531 258.106 0.862033C248.922 0.861792 238.063 0.911409 226.152 1.00315C214.24 1.09489 201.274 1.22882 187.878 1.39694C174.481 1.56506 160.653 1.7676 147.015 1.9965C133.377 2.22541 119.93 2.48054 107.294 2.75462C91.8685 3.0892 70.8023 3.66808 52.6481 4.22752C43.571 4.50724 35.2186 4.78234 28.6674 5.01941C22.1161 5.25649 17.3647 5.4557 15.4781 5.58423C13.3615 5.72842 11.4699 5.88505 9.85597 6.04548C8.24216 6.20592 6.90492 6.37012 5.90284 6.52942C4.90074 6.68872 4.23254 6.84308 3.95152 6.98391C3.67045 7.12474 3.77684 7.25208 4.32599 7.35709C4.98115 7.48236 6.71712 7.53857 10.3813 7.52214C14.0455 7.5057 19.6384 7.41657 28.005 7.25083C52.5498 6.76459 80.9306 6.24092 103.975 5.83986C127.019 5.43879 144.724 5.16033 147.921 5.16375C149.191 5.16511 143.052 5.50577 134.279 5.92049C117.749 6.70193 102.23 7.51355 88.0283 8.3334C73.8267 9.15326 60.9421 9.9812 49.6855 10.795C44.0571 11.2018 38.8361 11.6049 34.0594 12.0019C29.2828 12.3989 24.9515 12.7895 21.1036 13.1711C17.2556 13.5526 13.8918 13.9252 11.0495 14.2857C8.2071 14.6463 5.88549 14.9954 4.12575 15.3293C2.85052 15.5714 1.93205 15.7679 1.37886 15.9225C0.825615 16.077 0.639656 16.1892 0.825623 16.263C1.01154 16.3367 1.57001 16.3719 2.51209 16.3716C3.45415 16.3714 4.77868 16.3359 6.49392 16.2684C9.11379 16.1653 16.0035 15.8913 21.8039 15.6594C27.6043 15.4276 46.9304 14.3895 64.7519 13.3527C80.4779 12.4378 94.3402 11.6627 107.625 10.9722C120.911 10.2817 133.621 9.67567 147.036 9.09895C160.451 8.52223 174.573 7.97462 190.688 7.4012C206.804 6.82779 224.912 6.22857 246.298 5.54796C272.091 4.72711 286.949 4.24143 295.826 3.89956C300.264 3.72861 303.209 3.59329 305.277 3.47054C307.345 3.34779 308.536 3.23739 309.471 3.11513C310.699 2.9546 311.688 2.78352 312.431 2.61043C313.174 2.43731 313.67 2.26204 313.905 2.09343C314.139 1.92481 314.115 1.76279 313.817 1.6157C313.519 1.46862 312.948 1.33655 312.095 1.22805Z" fill="#ED785A"/>
</svg>
